<?xml version="1.0" encoding="UTF-8"?>
<svg width="30px" height="34px" viewBox="0 0 30 34" version="1.1" xmlns="http://www.w3.org/2000/svg" xmlns:xlink="http://www.w3.org/1999/xlink">
    <!-- Generator: Sketch 51.3 (57544) - http://www.bohemiancoding.com/sketch -->
    <title>cal</title>
    <desc>Created with Sketch.</desc>
    <defs></defs>
    <g id="Page-1" stroke="none" stroke-width="1" fill="none" fill-rule="evenodd">
        <g id="cal" transform="translate(-3.000000, -1.000000)">
            <path d="M30,4.5 L28.5,4.5 L28.5,1.5 L25.5,1.5 L25.5,4.5 L10.5,4.5 L10.5,1.5 L7.5,1.5 L7.5,4.5 L6,4.5 C4.35,4.5 3,5.85 3,7.5 L3,31.5 C3,33.15 4.35,34.5 6,34.5 L30,34.5 C31.65,34.5 33,33.15 33,31.5 L33,7.5 C33,5.85 31.65,4.5 30,4.5 Z M30,31.5 L6,31.5 L6,12 L30,12 L30,31.5 Z" id="Shape" fill="#000000" fill-rule="nonzero"></path>
            <polygon id="Shape" points="0 0 36 0 36 36 0 36"></polygon>
        </g>
    </g>
</svg>