<?xml version="1.0" encoding="UTF-8"?>
<svg width="45px" height="46px" viewBox="0 0 45 46" version="1.1" xmlns="http://www.w3.org/2000/svg" xmlns:xlink="http://www.w3.org/1999/xlink">
    <!-- Generator: Sketch 51.3 (57544) - http://www.bohemiancoding.com/sketch -->
    <title>time</title>
    <desc>Created with Sketch.</desc>
    <defs></defs>
    <g id="Page-1" stroke="none" stroke-width="1" fill="none" fill-rule="evenodd">
        <g id="time" transform="translate(0.000000, -4.000000)">
            <path d="M22.4775,4.5 C10.0575,4.5 1.77635684e-15,14.58 1.77635684e-15,27 C1.77635684e-15,39.42 10.0575,49.5 22.4775,49.5 C34.92,49.5 45,39.42 45,27 C45,14.58 34.92,4.5 22.4775,4.5 Z M22.5,45 C12.555,45 4.5,36.945 4.5,27 C4.5,17.055 12.555,9 22.5,9 C32.445,9 40.5,17.055 40.5,27 C40.5,36.945 32.445,45 22.5,45 Z" id="Shape" fill="#000000" fill-rule="nonzero"></path>
            <polygon id="Shape" points="0 0 45 0 45 54 0 54"></polygon>
            <polygon id="Shape" fill="#000000" fill-rule="nonzero" points="23.625 15.75 20.25 15.75 20.25 29.25 32.0625 36.3375 33.75 33.57 23.625 27.5625"></polygon>
        </g>
    </g>
</svg>