<?xml version="1.0" encoding="UTF-8"?>
<svg width="30px" height="30px" viewBox="0 0 30 30" version="1.1" xmlns="http://www.w3.org/2000/svg" xmlns:xlink="http://www.w3.org/1999/xlink">
    <!-- Generator: Sketch 51.3 (57544) - http://www.bohemiancoding.com/sketch -->
    <title>time</title>
    <desc>Created with Sketch.</desc>
    <defs></defs>
    <g id="Page-1" stroke="none" stroke-width="1" fill="none" fill-rule="evenodd">
        <g id="time" transform="translate(-3.000000, -3.000000)">
            <path d="M17.985,3 C9.705,3 3,9.72 3,18 C3,26.28 9.705,33 17.985,33 C26.28,33 33,26.28 33,18 C33,9.72 26.28,3 17.985,3 Z M18,30 C11.37,30 6,24.63 6,18 C6,11.37 11.37,6 18,6 C24.63,6 30,11.37 30,18 C30,24.63 24.63,30 18,30 Z" id="Shape" fill="#000000" fill-rule="nonzero"></path>
            <polygon id="Shape" points="0 0 36 0 36 36 0 36"></polygon>
            <polygon id="Shape" fill="#000000" fill-rule="nonzero" points="18.75 10.5 16.5 10.5 16.5 19.5 24.375 24.225 25.5 22.38 18.75 18.375"></polygon>
        </g>
    </g>
</svg>